<svg width="40" height="42" viewBox="0 0 40 42" fill="none" xmlns="http://www.w3.org/2000/svg">
<path d="M15.4285 40.2857H24.5714M19.9999 3.7143V1.42859M31.4285 8.28573L33.7142 6.00002M8.57138 8.28573L6.28566 6.00002M31.4285 28.8572L33.7142 31.1429M8.57138 28.8572L6.28566 31.1429M3.99995 17.4286H1.71423M38.2857 17.4286H35.9999M19.9999 9.42859C22.3207 9.42717 24.5736 10.2106 26.3928 11.6516C28.212 13.0925 29.4904 15.1063 30.0203 17.3657C30.5501 19.6251 30.3004 21.9973 29.3116 24.0969C28.3228 26.1964 26.653 27.8998 24.5737 28.9303L24.5714 31.1429C24.5714 32.3553 24.0897 33.5181 23.2324 34.3754C22.3751 35.2327 21.2124 35.7143 19.9999 35.7143C18.7875 35.7143 17.6248 35.2327 16.7675 34.3754C15.9102 33.5181 15.4285 32.3553 15.4285 31.1429V28.9303C13.3493 27.8999 11.6797 26.1966 10.6908 24.0974C9.702 21.9981 9.45207 19.6261 9.98167 17.3668C10.5113 15.1076 11.7893 13.0938 13.608 11.6526C15.4268 10.2115 17.6794 9.42768 19.9999 9.42859Z" stroke="#E6169B" stroke-width="2" stroke-linecap="round" stroke-linejoin="round"/>
</svg>
