<svg width="38" height="38" viewBox="0 0 38 38" fill="none" xmlns="http://www.w3.org/2000/svg">
<path d="M23.0992 29.2L26.9997 37L30.9597 32.9392L37 32.9997L31.3802 21.8397V21.8205M14.9008 29.2L11.0003 37L7.04032 32.9392L1 32.9997L6.61984 21.8397V21.8205" stroke="#E6169B" stroke-width="2" stroke-linecap="round" stroke-linejoin="round"/>
<path d="M33.5603 14.9997C33.5603 16.5203 32.2202 17.8 31.7795 19.1603C31.3399 20.5197 31.6403 22.3802 30.7802 23.56C29.92 24.7399 28.0797 25 26.9997 25.8803C25.9197 26.7607 25 28.4003 23.6003 28.8602C22.1997 29.32 20.6195 28.4397 19.0999 28.4397C17.5802 28.4397 15.9607 29.2999 14.6003 28.8602C13.24 28.4195 12.3799 26.7194 11.2 25.8803C10.0192 25.0403 8.17986 24.7399 7.3197 23.56C6.45954 22.3792 6.78018 20.56 6.32034 19.1603C5.85954 17.7597 4.4397 16.5203 4.4397 14.9997C4.4397 13.4791 5.77986 12.2003 6.21954 10.84C6.65922 9.4797 6.3597 7.62018 7.21986 6.44034C8.08002 5.2605 9.92034 5.00034 11.1002 4.12002C12.28 3.2397 13 1.60002 14.4995 1.14018C16 0.679378 17.4803 1.5597 19 1.5597C20.5197 1.5597 22.1392 0.699538 23.5005 1.14018C24.8599 1.57986 25.72 3.28002 26.9997 4.12002C28.2794 4.96002 30.0199 5.25954 30.88 6.44034C31.7402 7.62114 31.4205 9.44034 31.8803 10.84C32.3402 12.2397 33.5603 13.48 33.5603 14.9997ZM19 8.9997C17.4086 8.9997 15.8823 9.63189 14.757 10.7572C13.6317 11.8825 12.9995 13.4088 12.9995 15.0002C12.9995 16.5916 13.6317 18.1179 14.757 19.2432C15.8823 20.3685 17.4086 21.0007 19 21.0007C20.5913 21.0007 22.1174 20.3685 23.2427 19.2433C24.3679 18.1181 25 16.592 25 15.0007C25 13.4094 24.3679 11.8832 23.2427 10.758C22.1174 9.6328 20.5913 8.9997 19 8.9997Z" stroke="#E6169B" stroke-width="2" stroke-linecap="round" stroke-linejoin="round"/>
</svg>
